# xmcd
#
# Track frame offsets:
#	180
#	12563
#	31692
#	46698
#	65289
#	85891
#	98815
#	115027
#	132677
#	147293
#	161562
#	181210
#
# Disc length: 2686 seconds
#
# Revision: 0
# Processed by: cddbd v1.5.2PL0 Copyright (c) Steve Scherf et al.
# Submitted via: EasyCDDAExtractor 2010.4.0.0
#
DISCID=970a7c0c
DTITLE=Lapizlazuli - Crecer
DYEAR=1900
DGENRE=
TTITLE0=Muñequita
TTITLE1=Que Va
TTITLE2=Origami
TTITLE3=Sube El Telon
TTITLE4=Crecer
TTITLE5=Ando
TTITLE6=Rabia
TTITLE7=Misterio De Soledad
TTITLE8=Soy Incapaz
TTITLE9=Soy Tu Sangre
TTITLE10=Como Llueve
TTITLE11=Nada Importa
EXTD=
EXTT0=
EXTT1=
EXTT2=
EXTT3=
EXTT4=
EXTT5=
EXTT6=
EXTT7=
EXTT8=
EXTT9=
EXTT10=
EXTT11=
PLAYORDER=
